<mxfile host="app.diagrams.net" agent="Mozilla/5.0 (Windows NT 10.0; Win64; x64) AppleWebKit/537.36 (KHTML, like Gecko) Chrome/129.0.0.0 Safari/537.36 Edg/129.0.0.0" version="24.8.0" pages="2">
  <diagram name="平台用户权限设计" id="BVpExFO8jLNiu2hzyrGf">
    <mxGraphModel dx="1426" dy="781" grid="1" gridSize="10" guides="1" tooltips="1" connect="1" arrows="1" fold="1" page="1" pageScale="1" pageWidth="3300" pageHeight="2339" math="0" shadow="0">
      <root>
        <mxCell id="0" />
        <mxCell id="1" parent="0" />
      </root>
    </mxGraphModel>
  </diagram>
  <diagram id="NLyJUqlzEAnoH9XhKxW2" name="doris单表权限控制设计">
    <mxGraphModel dx="1426" dy="781" grid="1" gridSize="10" guides="1" tooltips="1" connect="1" arrows="1" fold="1" page="1" pageScale="1" pageWidth="3300" pageHeight="2339" math="0" shadow="0">
      <root>
        <mxCell id="0" />
        <mxCell id="1" parent="0" />
        <mxCell id="oiUdcjGEBhYvgrvljEje-3" value="" style="swimlane;startSize=0;" vertex="1" parent="1">
          <mxGeometry x="440" y="120" width="880" height="610" as="geometry" />
        </mxCell>
        <mxCell id="oiUdcjGEBhYvgrvljEje-1" value="基于角色的权限控制&lt;div&gt;RBAC&lt;/div&gt;" style="rounded=1;whiteSpace=wrap;html=1;fillColor=#ffff88;strokeColor=#36393d;" vertex="1" parent="oiUdcjGEBhYvgrvljEje-3">
          <mxGeometry x="40" y="60" width="120" height="60" as="geometry" />
        </mxCell>
        <mxCell id="oiUdcjGEBhYvgrvljEje-4" value="&lt;font style=&quot;font-size: 20px;&quot;&gt;Doris&lt;/font&gt;" style="text;html=1;align=center;verticalAlign=middle;whiteSpace=wrap;rounded=0;" vertex="1" parent="oiUdcjGEBhYvgrvljEje-3">
          <mxGeometry x="20" y="10" width="90" height="40" as="geometry" />
        </mxCell>
        <mxCell id="oiUdcjGEBhYvgrvljEje-5" value="每个用户创建时有一个专属于此用户的默认角色，给此用户授权时，实际上是给该用户的默认角色授权&lt;div style=&quot;line-height: 150%;&quot;&gt;并且该默认角色不能被删除、不能被分配给其他用户，该用户被删除时，这个角色会被删除&lt;/div&gt;" style="rounded=0;whiteSpace=wrap;html=1;" vertex="1" parent="oiUdcjGEBhYvgrvljEje-3">
          <mxGeometry x="20" y="140" width="160" height="180" as="geometry" />
        </mxCell>
        <mxCell id="oiUdcjGEBhYvgrvljEje-6" value="" style="endArrow=classic;html=1;rounded=0;exitX=0.5;exitY=0;exitDx=0;exitDy=0;entryX=0.5;entryY=1;entryDx=0;entryDy=0;" edge="1" parent="oiUdcjGEBhYvgrvljEje-3" source="oiUdcjGEBhYvgrvljEje-5" target="oiUdcjGEBhYvgrvljEje-1">
          <mxGeometry width="50" height="50" relative="1" as="geometry">
            <mxPoint x="260" y="300" as="sourcePoint" />
            <mxPoint x="310" y="250" as="targetPoint" />
          </mxGeometry>
        </mxCell>
        <mxCell id="oiUdcjGEBhYvgrvljEje-21" value="Doris用户权限" style="swimlane;fontStyle=0;childLayout=stackLayout;horizontal=1;startSize=26;fillColor=#e1d5e7;horizontalStack=0;resizeParent=1;resizeParentMax=0;resizeLast=0;collapsible=1;marginBottom=0;html=1;strokeColor=#9673a6;" vertex="1" parent="oiUdcjGEBhYvgrvljEje-3">
          <mxGeometry x="220" y="50" width="200" height="320" as="geometry" />
        </mxCell>
        <mxCell id="oiUdcjGEBhYvgrvljEje-22" value="Node_priv（节点变更权限）" style="text;strokeColor=#666666;fillColor=#f5f5f5;align=left;verticalAlign=top;spacingLeft=4;spacingRight=4;overflow=hidden;rotatable=0;points=[[0,0.5],[1,0.5]];portConstraint=eastwest;whiteSpace=wrap;html=1;fontColor=#333333;" vertex="1" parent="oiUdcjGEBhYvgrvljEje-21">
          <mxGeometry y="26" width="200" height="34" as="geometry" />
        </mxCell>
        <mxCell id="oiUdcjGEBhYvgrvljEje-23" value="Grant_priv（权限变更权限）" style="text;strokeColor=#6c8ebf;fillColor=#dae8fc;align=left;verticalAlign=top;spacingLeft=4;spacingRight=4;overflow=hidden;rotatable=0;points=[[0,0.5],[1,0.5]];portConstraint=eastwest;whiteSpace=wrap;html=1;" vertex="1" parent="oiUdcjGEBhYvgrvljEje-21">
          <mxGeometry y="60" width="200" height="30" as="geometry" />
        </mxCell>
        <mxCell id="oiUdcjGEBhYvgrvljEje-24" value="Select_priv（只读权限）" style="text;strokeColor=#82b366;fillColor=#d5e8d4;align=left;verticalAlign=top;spacingLeft=4;spacingRight=4;overflow=hidden;rotatable=0;points=[[0,0.5],[1,0.5]];portConstraint=eastwest;whiteSpace=wrap;html=1;" vertex="1" parent="oiUdcjGEBhYvgrvljEje-21">
          <mxGeometry y="90" width="200" height="30" as="geometry" />
        </mxCell>
        <mxCell id="oiUdcjGEBhYvgrvljEje-25" value="Load_priv（写入权限）" style="text;strokeColor=#d79b00;fillColor=#ffe6cc;align=left;verticalAlign=top;spacingLeft=4;spacingRight=4;overflow=hidden;rotatable=0;points=[[0,0.5],[1,0.5]];portConstraint=eastwest;whiteSpace=wrap;html=1;" vertex="1" parent="oiUdcjGEBhYvgrvljEje-21">
          <mxGeometry y="120" width="200" height="30" as="geometry" />
        </mxCell>
        <mxCell id="oiUdcjGEBhYvgrvljEje-26" value="Alter_priv（更改权限）" style="text;strokeColor=#d6b656;fillColor=#fff2cc;align=left;verticalAlign=top;spacingLeft=4;spacingRight=4;overflow=hidden;rotatable=0;points=[[0,0.5],[1,0.5]];portConstraint=eastwest;whiteSpace=wrap;html=1;" vertex="1" parent="oiUdcjGEBhYvgrvljEje-21">
          <mxGeometry y="150" width="200" height="30" as="geometry" />
        </mxCell>
        <mxCell id="oiUdcjGEBhYvgrvljEje-27" value="Create_priv（创建权限）" style="text;strokeColor=#9673a6;fillColor=#e1d5e7;align=left;verticalAlign=top;spacingLeft=4;spacingRight=4;overflow=hidden;rotatable=0;points=[[0,0.5],[1,0.5]];portConstraint=eastwest;whiteSpace=wrap;html=1;" vertex="1" parent="oiUdcjGEBhYvgrvljEje-21">
          <mxGeometry y="180" width="200" height="30" as="geometry" />
        </mxCell>
        <mxCell id="oiUdcjGEBhYvgrvljEje-28" value="Drop_priv（删除权限）" style="text;strokeColor=#b85450;fillColor=#f8cecc;align=left;verticalAlign=top;spacingLeft=4;spacingRight=4;overflow=hidden;rotatable=0;points=[[0,0.5],[1,0.5]];portConstraint=eastwest;whiteSpace=wrap;html=1;" vertex="1" parent="oiUdcjGEBhYvgrvljEje-21">
          <mxGeometry y="210" width="200" height="30" as="geometry" />
        </mxCell>
        <mxCell id="oiUdcjGEBhYvgrvljEje-29" value="Usage_priv（Resource和Workload Group使用权限）" style="text;strokeColor=#36393d;fillColor=#ffcc99;align=left;verticalAlign=top;spacingLeft=4;spacingRight=4;overflow=hidden;rotatable=0;points=[[0,0.5],[1,0.5]];portConstraint=eastwest;whiteSpace=wrap;html=1;" vertex="1" parent="oiUdcjGEBhYvgrvljEje-21">
          <mxGeometry y="240" width="200" height="40" as="geometry" />
        </mxCell>
        <mxCell id="oiUdcjGEBhYvgrvljEje-30" value="Show_view_priv（执行SHOW CREATE VIEW权限）" style="text;strokeColor=#36393d;fillColor=#cce5ff;align=left;verticalAlign=top;spacingLeft=4;spacingRight=4;overflow=hidden;rotatable=0;points=[[0,0.5],[1,0.5]];portConstraint=eastwest;whiteSpace=wrap;html=1;" vertex="1" parent="oiUdcjGEBhYvgrvljEje-21">
          <mxGeometry y="280" width="200" height="40" as="geometry" />
        </mxCell>
      </root>
    </mxGraphModel>
  </diagram>
</mxfile>
